<mxfile host="app.diagrams.net" modified="2021-02-05T05:19:11.537Z" agent="5.0 (Macintosh; Intel Mac OS X 11_0_1) AppleWebKit/537.36 (KHTML, like Gecko) Chrome/88.0.4324.96 Safari/537.36" etag="zDm6SaVAuKmvwfciIlxq" version="13.6.5" type="github">
  <diagram name="Page-1" id="74e2e168-ea6b-b213-b513-2b3c1d86103e">
    <mxGraphModel dx="1426" dy="769" grid="1" gridSize="10" guides="1" tooltips="1" connect="1" arrows="1" fold="1" page="1" pageScale="1" pageWidth="1100" pageHeight="850" background="#F4F1DE" math="0" shadow="0">
      <root>
        <mxCell id="0" />
        <mxCell id="1" parent="0" />
        <mxCell id="_5zznYZPw9g1OTF376kU-52" value="获取直播间详情信息" style="swimlane;html=1;childLayout=stackLayout;startSize=20;rounded=0;shadow=0;labelBackgroundColor=none;strokeWidth=1;fontFamily=Verdana;fontSize=8;align=center;fillColor=#F2CC8F;strokeColor=#E07A5F;fontColor=#393C56;" vertex="1" parent="1">
          <mxGeometry x="40" y="20" width="1280" height="770" as="geometry" />
        </mxCell>
        <mxCell id="_5zznYZPw9g1OTF376kU-53" value="用户" style="swimlane;html=1;startSize=20;fillColor=#F2CC8F;strokeColor=#E07A5F;fontColor=#393C56;shadow=0;" vertex="1" parent="_5zznYZPw9g1OTF376kU-52">
          <mxGeometry y="20" width="160" height="750" as="geometry" />
        </mxCell>
        <mxCell id="_5zznYZPw9g1OTF376kU-54" value="开屏/首页/push&lt;br&gt;" style="rounded=1;whiteSpace=wrap;html=1;shadow=0;labelBackgroundColor=none;strokeWidth=1;fontFamily=Verdana;fontSize=8;align=center;fillColor=#F2CC8F;strokeColor=#E07A5F;fontColor=#393C56;" vertex="1" parent="_5zznYZPw9g1OTF376kU-53">
          <mxGeometry x="20" y="65" width="100" height="60" as="geometry" />
        </mxCell>
        <mxCell id="_5zznYZPw9g1OTF376kU-55" value="" style="rounded=1;whiteSpace=wrap;html=1;shadow=0;labelBackgroundColor=none;strokeWidth=1;fontFamily=Verdana;fontSize=8;align=center;fillColor=#F2CC8F;strokeColor=#E07A5F;fontColor=#393C56;" vertex="1" parent="_5zznYZPw9g1OTF376kU-53">
          <mxGeometry x="20" y="155" width="100" height="60" as="geometry" />
        </mxCell>
        <mxCell id="_5zznYZPw9g1OTF376kU-56" value="" style="rounded=1;whiteSpace=wrap;html=1;shadow=0;labelBackgroundColor=none;strokeWidth=1;fontFamily=Verdana;fontSize=8;align=center;fillColor=#F2CC8F;strokeColor=#E07A5F;fontColor=#393C56;" vertex="1" parent="_5zznYZPw9g1OTF376kU-53">
          <mxGeometry x="30" y="560" width="100" height="60" as="geometry" />
        </mxCell>
        <mxCell id="_5zznYZPw9g1OTF376kU-57" style="edgeStyle=orthogonalEdgeStyle;rounded=1;html=1;labelBackgroundColor=none;startArrow=none;startFill=0;startSize=5;endArrow=classicThin;endFill=1;endSize=5;jettySize=auto;orthogonalLoop=1;strokeWidth=1;fontFamily=Verdana;fontSize=8;strokeColor=#E07A5F;fontColor=#393C56;" edge="1" parent="_5zznYZPw9g1OTF376kU-52" source="_5zznYZPw9g1OTF376kU-73" target="_5zznYZPw9g1OTF376kU-77">
          <mxGeometry relative="1" as="geometry" />
        </mxCell>
        <mxCell id="_5zznYZPw9g1OTF376kU-58" value="Text" style="edgeLabel;html=1;align=center;verticalAlign=middle;resizable=0;points=[];labelBackgroundColor=#F4F1DE;fontColor=#393C56;" vertex="1" connectable="0" parent="_5zznYZPw9g1OTF376kU-57">
          <mxGeometry x="-0.2667" y="1" relative="1" as="geometry">
            <mxPoint as="offset" />
          </mxGeometry>
        </mxCell>
        <mxCell id="_5zznYZPw9g1OTF376kU-59" style="edgeStyle=orthogonalEdgeStyle;rounded=1;html=1;labelBackgroundColor=none;startArrow=none;startFill=0;startSize=5;endArrow=classicThin;endFill=1;endSize=5;jettySize=auto;orthogonalLoop=1;strokeWidth=1;fontFamily=Verdana;fontSize=8;strokeColor=#E07A5F;fontColor=#393C56;" edge="1" parent="_5zznYZPw9g1OTF376kU-52" source="_5zznYZPw9g1OTF376kU-74" target="_5zznYZPw9g1OTF376kU-79">
          <mxGeometry relative="1" as="geometry" />
        </mxCell>
        <mxCell id="_5zznYZPw9g1OTF376kU-60" style="edgeStyle=orthogonalEdgeStyle;rounded=1;html=1;labelBackgroundColor=none;startArrow=none;startFill=0;startSize=5;endArrow=classicThin;endFill=1;endSize=5;jettySize=auto;orthogonalLoop=1;strokeWidth=1;fontFamily=Verdana;fontSize=8;strokeColor=#E07A5F;fontColor=#393C56;" edge="1" parent="_5zznYZPw9g1OTF376kU-52" source="_5zznYZPw9g1OTF376kU-80" target="_5zznYZPw9g1OTF376kU-74">
          <mxGeometry relative="1" as="geometry" />
        </mxCell>
        <mxCell id="_5zznYZPw9g1OTF376kU-61" style="edgeStyle=orthogonalEdgeStyle;rounded=1;html=1;labelBackgroundColor=none;startArrow=none;startFill=0;startSize=5;endArrow=classicThin;endFill=1;endSize=5;jettySize=auto;orthogonalLoop=1;strokeWidth=1;fontFamily=Verdana;fontSize=8;strokeColor=#E07A5F;fontColor=#393C56;" edge="1" parent="_5zznYZPw9g1OTF376kU-52" source="_5zznYZPw9g1OTF376kU-85" target="_5zznYZPw9g1OTF376kU-74">
          <mxGeometry relative="1" as="geometry" />
        </mxCell>
        <mxCell id="_5zznYZPw9g1OTF376kU-62" style="edgeStyle=orthogonalEdgeStyle;rounded=1;html=1;labelBackgroundColor=none;startArrow=none;startFill=0;startSize=5;endArrow=classicThin;endFill=1;endSize=5;jettySize=auto;orthogonalLoop=1;strokeWidth=1;fontFamily=Verdana;fontSize=8;strokeColor=#E07A5F;fontColor=#393C56;" edge="1" parent="_5zznYZPw9g1OTF376kU-52" source="_5zznYZPw9g1OTF376kU-88" target="_5zznYZPw9g1OTF376kU-74">
          <mxGeometry relative="1" as="geometry">
            <Array as="points">
              <mxPoint x="20" y="690" />
              <mxPoint x="20" y="370" />
              <mxPoint x="70" y="370" />
            </Array>
          </mxGeometry>
        </mxCell>
        <mxCell id="_5zznYZPw9g1OTF376kU-63" style="edgeStyle=orthogonalEdgeStyle;rounded=1;html=1;labelBackgroundColor=none;startArrow=none;startFill=0;startSize=5;endArrow=classicThin;endFill=1;endSize=5;jettySize=auto;orthogonalLoop=1;strokeWidth=1;fontFamily=Verdana;fontSize=8;strokeColor=#E07A5F;fontColor=#393C56;" edge="1" parent="_5zznYZPw9g1OTF376kU-52" source="_5zznYZPw9g1OTF376kU-80" target="_5zznYZPw9g1OTF376kU-84">
          <mxGeometry relative="1" as="geometry" />
        </mxCell>
        <mxCell id="_5zznYZPw9g1OTF376kU-64" style="edgeStyle=orthogonalEdgeStyle;rounded=1;html=1;labelBackgroundColor=none;startArrow=none;startFill=0;startSize=5;endArrow=classicThin;endFill=1;endSize=5;jettySize=auto;orthogonalLoop=1;strokeWidth=1;fontFamily=Verdana;fontSize=8;strokeColor=#E07A5F;fontColor=#393C56;" edge="1" parent="_5zznYZPw9g1OTF376kU-52" source="_5zznYZPw9g1OTF376kU-88" target="_5zznYZPw9g1OTF376kU-96">
          <mxGeometry relative="1" as="geometry" />
        </mxCell>
        <mxCell id="_5zznYZPw9g1OTF376kU-65" style="edgeStyle=orthogonalEdgeStyle;rounded=1;html=1;labelBackgroundColor=none;startArrow=none;startFill=0;startSize=5;endArrow=classicThin;endFill=1;endSize=5;jettySize=auto;orthogonalLoop=1;strokeWidth=1;fontFamily=Verdana;fontSize=8;strokeColor=#E07A5F;fontColor=#393C56;" edge="1" parent="_5zznYZPw9g1OTF376kU-52" source="_5zznYZPw9g1OTF376kU-96" target="_5zznYZPw9g1OTF376kU-100">
          <mxGeometry relative="1" as="geometry" />
        </mxCell>
        <mxCell id="_5zznYZPw9g1OTF376kU-66" style="edgeStyle=orthogonalEdgeStyle;rounded=1;html=1;labelBackgroundColor=none;startArrow=none;startFill=0;startSize=5;endArrow=classicThin;endFill=1;endSize=5;jettySize=auto;orthogonalLoop=1;strokeWidth=1;fontFamily=Verdana;fontSize=8;strokeColor=#E07A5F;fontColor=#393C56;" edge="1" parent="_5zznYZPw9g1OTF376kU-52" source="_5zznYZPw9g1OTF376kU-86" target="_5zznYZPw9g1OTF376kU-93">
          <mxGeometry relative="1" as="geometry" />
        </mxCell>
        <mxCell id="_5zznYZPw9g1OTF376kU-67" style="edgeStyle=orthogonalEdgeStyle;rounded=1;html=1;labelBackgroundColor=none;startArrow=none;startFill=0;startSize=5;endArrow=classicThin;endFill=1;endSize=5;jettySize=auto;orthogonalLoop=1;strokeWidth=1;fontFamily=Verdana;fontSize=8;strokeColor=#E07A5F;fontColor=#393C56;" edge="1" parent="_5zznYZPw9g1OTF376kU-52" source="_5zznYZPw9g1OTF376kU-95" target="_5zznYZPw9g1OTF376kU-81">
          <mxGeometry relative="1" as="geometry">
            <Array as="points">
              <mxPoint x="660" y="610" />
              <mxPoint x="660" y="550" />
              <mxPoint x="400" y="550" />
            </Array>
          </mxGeometry>
        </mxCell>
        <mxCell id="_5zznYZPw9g1OTF376kU-68" style="edgeStyle=orthogonalEdgeStyle;rounded=1;html=1;labelBackgroundColor=none;startArrow=none;startFill=0;startSize=5;endArrow=classicThin;endFill=1;endSize=5;jettySize=auto;orthogonalLoop=1;strokeColor=#E07A5F;strokeWidth=1;fontFamily=Verdana;fontSize=8;fontColor=#393C56;" edge="1" parent="_5zznYZPw9g1OTF376kU-52" source="_5zznYZPw9g1OTF376kU-95" target="_5zznYZPw9g1OTF376kU-87">
          <mxGeometry relative="1" as="geometry" />
        </mxCell>
        <mxCell id="_5zznYZPw9g1OTF376kU-69" style="edgeStyle=orthogonalEdgeStyle;rounded=1;html=1;labelBackgroundColor=none;startArrow=none;startFill=0;startSize=5;endArrow=classicThin;endFill=1;endSize=5;jettySize=auto;orthogonalLoop=1;strokeWidth=1;fontFamily=Verdana;fontSize=8;strokeColor=#E07A5F;fontColor=#393C56;" edge="1" parent="_5zznYZPw9g1OTF376kU-52" source="_5zznYZPw9g1OTF376kU-95" target="_5zznYZPw9g1OTF376kU-75">
          <mxGeometry relative="1" as="geometry">
            <Array as="points">
              <mxPoint x="660" y="610" />
              <mxPoint x="660" y="550" />
              <mxPoint x="80" y="550" />
            </Array>
          </mxGeometry>
        </mxCell>
        <mxCell id="_5zznYZPw9g1OTF376kU-70" style="edgeStyle=orthogonalEdgeStyle;rounded=1;html=1;labelBackgroundColor=none;startArrow=none;startFill=0;startSize=5;endArrow=classicThin;endFill=1;endSize=5;jettySize=auto;orthogonalLoop=1;strokeWidth=1;fontFamily=Verdana;fontSize=8;strokeColor=#E07A5F;fontColor=#393C56;" edge="1" parent="_5zznYZPw9g1OTF376kU-52" source="_5zznYZPw9g1OTF376kU-75" target="_5zznYZPw9g1OTF376kU-87">
          <mxGeometry relative="1" as="geometry">
            <Array as="points">
              <mxPoint x="80" y="650" />
              <mxPoint x="490" y="650" />
              <mxPoint x="490" y="610" />
            </Array>
          </mxGeometry>
        </mxCell>
        <mxCell id="_5zznYZPw9g1OTF376kU-71" style="edgeStyle=orthogonalEdgeStyle;rounded=1;html=1;labelBackgroundColor=none;startArrow=none;startFill=0;startSize=5;endArrow=classicThin;endFill=1;endSize=5;jettySize=auto;orthogonalLoop=1;strokeWidth=1;fontFamily=Verdana;fontSize=8;strokeColor=#E07A5F;fontColor=#393C56;" edge="1" parent="_5zznYZPw9g1OTF376kU-52" source="_5zznYZPw9g1OTF376kU-81" target="_5zznYZPw9g1OTF376kU-87">
          <mxGeometry relative="1" as="geometry" />
        </mxCell>
        <mxCell id="_5zznYZPw9g1OTF376kU-72" value="h5直播间" style="swimlane;html=1;startSize=20;fillColor=#F2CC8F;strokeColor=#E07A5F;fontColor=#393C56;" vertex="1" parent="_5zznYZPw9g1OTF376kU-52">
          <mxGeometry x="160" y="20" width="160" height="750" as="geometry" />
        </mxCell>
        <mxCell id="_5zznYZPw9g1OTF376kU-73" value="获取直播间详情" style="rounded=1;whiteSpace=wrap;html=1;shadow=0;labelBackgroundColor=none;strokeWidth=1;fontFamily=Verdana;fontSize=8;align=center;fillColor=#F2CC8F;strokeColor=#E07A5F;fontColor=#393C56;" vertex="1" parent="_5zznYZPw9g1OTF376kU-72">
          <mxGeometry x="40" y="65" width="80" height="60" as="geometry" />
        </mxCell>
        <mxCell id="_5zznYZPw9g1OTF376kU-74" value="" style="rounded=1;whiteSpace=wrap;html=1;shadow=0;labelBackgroundColor=none;strokeWidth=1;fontFamily=Verdana;fontSize=8;align=center;fillColor=#F2CC8F;strokeColor=#E07A5F;fontColor=#393C56;" vertex="1" parent="_5zznYZPw9g1OTF376kU-72">
          <mxGeometry x="20" y="155" width="100" height="60" as="geometry" />
        </mxCell>
        <mxCell id="_5zznYZPw9g1OTF376kU-75" value="" style="rounded=1;whiteSpace=wrap;html=1;shadow=0;labelBackgroundColor=none;strokeWidth=1;fontFamily=Verdana;fontSize=8;align=center;fillColor=#F2CC8F;strokeColor=#E07A5F;fontColor=#393C56;" vertex="1" parent="_5zznYZPw9g1OTF376kU-72">
          <mxGeometry x="30" y="560" width="100" height="60" as="geometry" />
        </mxCell>
        <mxCell id="_5zznYZPw9g1OTF376kU-76" value="网关" style="swimlane;html=1;startSize=20;fillColor=#F2CC8F;strokeColor=#E07A5F;fontColor=#393C56;" vertex="1" parent="_5zznYZPw9g1OTF376kU-52">
          <mxGeometry x="320" y="20" width="160" height="750" as="geometry" />
        </mxCell>
        <mxCell id="_5zznYZPw9g1OTF376kU-77" value="" style="rounded=1;whiteSpace=wrap;html=1;shadow=0;labelBackgroundColor=none;strokeWidth=1;fontFamily=Verdana;fontSize=8;align=center;fillColor=#F2CC8F;strokeColor=#E07A5F;fontColor=#393C56;" vertex="1" parent="_5zznYZPw9g1OTF376kU-76">
          <mxGeometry x="30" y="65" width="100" height="60" as="geometry" />
        </mxCell>
        <mxCell id="_5zznYZPw9g1OTF376kU-78" value="直播服务" style="swimlane;html=1;startSize=20;fillColor=#F2CC8F;strokeColor=#E07A5F;fontColor=#393C56;" vertex="1" parent="_5zznYZPw9g1OTF376kU-52">
          <mxGeometry x="480" y="20" width="160" height="750" as="geometry" />
        </mxCell>
        <mxCell id="_5zznYZPw9g1OTF376kU-79" value="" style="rounded=1;whiteSpace=wrap;html=1;shadow=0;labelBackgroundColor=none;strokeWidth=1;fontFamily=Verdana;fontSize=8;align=center;fillColor=#F2CC8F;strokeColor=#E07A5F;fontColor=#393C56;" vertex="1" parent="_5zznYZPw9g1OTF376kU-78">
          <mxGeometry x="30" y="155" width="100" height="60" as="geometry" />
        </mxCell>
        <mxCell id="_5zznYZPw9g1OTF376kU-80" value="" style="rhombus;whiteSpace=wrap;html=1;rounded=0;shadow=0;labelBackgroundColor=none;strokeWidth=1;fontFamily=Verdana;fontSize=8;align=center;fillColor=#F2CC8F;strokeColor=#E07A5F;fontColor=#393C56;" vertex="1" parent="_5zznYZPw9g1OTF376kU-78">
          <mxGeometry x="40" y="240" width="80" height="60" as="geometry" />
        </mxCell>
        <mxCell id="_5zznYZPw9g1OTF376kU-81" value="" style="rounded=1;whiteSpace=wrap;html=1;shadow=0;labelBackgroundColor=none;strokeWidth=1;fontFamily=Verdana;fontSize=8;align=center;fillColor=#F2CC8F;strokeColor=#E07A5F;fontColor=#393C56;" vertex="1" parent="_5zznYZPw9g1OTF376kU-78">
          <mxGeometry x="30" y="560" width="100" height="60" as="geometry" />
        </mxCell>
        <mxCell id="_5zznYZPw9g1OTF376kU-82" style="edgeStyle=orthogonalEdgeStyle;rounded=1;html=1;labelBackgroundColor=none;startArrow=none;startFill=0;startSize=5;endArrow=classicThin;endFill=1;endSize=5;jettySize=auto;orthogonalLoop=1;strokeWidth=1;fontFamily=Verdana;fontSize=8;strokeColor=#E07A5F;fontColor=#393C56;" edge="1" parent="_5zznYZPw9g1OTF376kU-78" source="_5zznYZPw9g1OTF376kU-79" target="_5zznYZPw9g1OTF376kU-80">
          <mxGeometry relative="1" as="geometry" />
        </mxCell>
        <mxCell id="_5zznYZPw9g1OTF376kU-83" value="存储介质" style="swimlane;html=1;startSize=20;fillColor=#F2CC8F;strokeColor=#E07A5F;fontColor=#393C56;" vertex="1" parent="_5zznYZPw9g1OTF376kU-52">
          <mxGeometry x="640" y="20" width="160" height="750" as="geometry" />
        </mxCell>
        <mxCell id="_5zznYZPw9g1OTF376kU-84" value="" style="rounded=1;whiteSpace=wrap;html=1;shadow=0;labelBackgroundColor=none;strokeWidth=1;fontFamily=Verdana;fontSize=8;align=center;fillColor=#F2CC8F;strokeColor=#E07A5F;fontColor=#393C56;" vertex="1" parent="_5zznYZPw9g1OTF376kU-83">
          <mxGeometry x="30" y="240" width="100" height="60" as="geometry" />
        </mxCell>
        <mxCell id="_5zznYZPw9g1OTF376kU-85" value="" style="rhombus;whiteSpace=wrap;html=1;rounded=0;shadow=0;labelBackgroundColor=none;strokeWidth=1;fontFamily=Verdana;fontSize=8;align=center;fillColor=#F2CC8F;strokeColor=#E07A5F;fontColor=#393C56;" vertex="1" parent="_5zznYZPw9g1OTF376kU-83">
          <mxGeometry x="40" y="320" width="80" height="60" as="geometry" />
        </mxCell>
        <mxCell id="_5zznYZPw9g1OTF376kU-86" value="" style="rounded=1;whiteSpace=wrap;html=1;shadow=0;labelBackgroundColor=none;strokeWidth=1;fontFamily=Verdana;fontSize=8;align=center;fillColor=#F2CC8F;strokeColor=#E07A5F;fontColor=#393C56;" vertex="1" parent="_5zznYZPw9g1OTF376kU-83">
          <mxGeometry x="30" y="400" width="100" height="60" as="geometry" />
        </mxCell>
        <mxCell id="_5zznYZPw9g1OTF376kU-87" value="" style="rounded=1;whiteSpace=wrap;html=1;shadow=0;labelBackgroundColor=none;strokeWidth=1;fontFamily=Verdana;fontSize=8;align=center;fillColor=#F2CC8F;strokeColor=#E07A5F;fontColor=#393C56;" vertex="1" parent="_5zznYZPw9g1OTF376kU-83">
          <mxGeometry x="30" y="560" width="100" height="60" as="geometry" />
        </mxCell>
        <mxCell id="_5zznYZPw9g1OTF376kU-88" value="" style="rhombus;whiteSpace=wrap;html=1;rounded=0;shadow=0;labelBackgroundColor=none;strokeWidth=1;fontFamily=Verdana;fontSize=8;align=center;fillColor=#F2CC8F;strokeColor=#E07A5F;fontColor=#393C56;" vertex="1" parent="_5zznYZPw9g1OTF376kU-83">
          <mxGeometry x="40" y="640" width="80" height="60" as="geometry" />
        </mxCell>
        <mxCell id="_5zznYZPw9g1OTF376kU-89" style="edgeStyle=orthogonalEdgeStyle;rounded=1;html=1;labelBackgroundColor=none;startArrow=none;startFill=0;startSize=5;endArrow=classicThin;endFill=1;endSize=5;jettySize=auto;orthogonalLoop=1;strokeColor=#E07A5F;strokeWidth=1;fontFamily=Verdana;fontSize=8;fontColor=#393C56;" edge="1" parent="_5zznYZPw9g1OTF376kU-83" source="_5zznYZPw9g1OTF376kU-84" target="_5zznYZPw9g1OTF376kU-85">
          <mxGeometry relative="1" as="geometry" />
        </mxCell>
        <mxCell id="_5zznYZPw9g1OTF376kU-90" style="edgeStyle=orthogonalEdgeStyle;rounded=1;html=1;labelBackgroundColor=none;startArrow=none;startFill=0;startSize=5;endArrow=classicThin;endFill=1;endSize=5;jettySize=auto;orthogonalLoop=1;strokeWidth=1;fontFamily=Verdana;fontSize=8;strokeColor=#E07A5F;fontColor=#393C56;" edge="1" parent="_5zznYZPw9g1OTF376kU-83" source="_5zznYZPw9g1OTF376kU-85" target="_5zznYZPw9g1OTF376kU-86">
          <mxGeometry relative="1" as="geometry" />
        </mxCell>
        <mxCell id="_5zznYZPw9g1OTF376kU-91" style="edgeStyle=orthogonalEdgeStyle;rounded=1;html=1;labelBackgroundColor=none;startArrow=none;startFill=0;startSize=5;endArrow=classicThin;endFill=1;endSize=5;jettySize=auto;orthogonalLoop=1;strokeWidth=1;fontFamily=Verdana;fontSize=8;strokeColor=#E07A5F;fontColor=#393C56;" edge="1" parent="_5zznYZPw9g1OTF376kU-83" source="_5zznYZPw9g1OTF376kU-87" target="_5zznYZPw9g1OTF376kU-88">
          <mxGeometry relative="1" as="geometry" />
        </mxCell>
        <mxCell id="_5zznYZPw9g1OTF376kU-92" value="" style="swimlane;html=1;startSize=20;fillColor=#F2CC8F;strokeColor=#E07A5F;fontColor=#393C56;" vertex="1" parent="_5zznYZPw9g1OTF376kU-52">
          <mxGeometry x="800" y="20" width="160" height="750" as="geometry" />
        </mxCell>
        <mxCell id="_5zznYZPw9g1OTF376kU-93" value="" style="rounded=1;whiteSpace=wrap;html=1;shadow=0;labelBackgroundColor=none;strokeWidth=1;fontFamily=Verdana;fontSize=8;align=center;fillColor=#F2CC8F;strokeColor=#E07A5F;fontColor=#393C56;" vertex="1" parent="_5zznYZPw9g1OTF376kU-92">
          <mxGeometry x="30" y="400" width="100" height="60" as="geometry" />
        </mxCell>
        <mxCell id="_5zznYZPw9g1OTF376kU-94" value="" style="rounded=1;whiteSpace=wrap;html=1;shadow=0;labelBackgroundColor=none;strokeWidth=1;fontFamily=Verdana;fontSize=8;align=center;fillColor=#F2CC8F;strokeColor=#E07A5F;fontColor=#393C56;" vertex="1" parent="_5zznYZPw9g1OTF376kU-92">
          <mxGeometry x="30" y="480" width="100" height="60" as="geometry" />
        </mxCell>
        <mxCell id="_5zznYZPw9g1OTF376kU-95" value="" style="rounded=1;whiteSpace=wrap;html=1;shadow=0;labelBackgroundColor=none;strokeWidth=1;fontFamily=Verdana;fontSize=8;align=center;fillColor=#F2CC8F;strokeColor=#E07A5F;fontColor=#393C56;" vertex="1" parent="_5zznYZPw9g1OTF376kU-92">
          <mxGeometry x="30" y="560" width="100" height="60" as="geometry" />
        </mxCell>
        <mxCell id="_5zznYZPw9g1OTF376kU-96" value="" style="rounded=1;whiteSpace=wrap;html=1;shadow=0;labelBackgroundColor=none;strokeWidth=1;fontFamily=Verdana;fontSize=8;align=center;fillColor=#F2CC8F;strokeColor=#E07A5F;fontColor=#393C56;" vertex="1" parent="_5zznYZPw9g1OTF376kU-92">
          <mxGeometry x="30" y="640" width="100" height="60" as="geometry" />
        </mxCell>
        <mxCell id="_5zznYZPw9g1OTF376kU-97" style="edgeStyle=orthogonalEdgeStyle;rounded=1;html=1;labelBackgroundColor=none;startArrow=none;startFill=0;startSize=5;endArrow=classicThin;endFill=1;endSize=5;jettySize=auto;orthogonalLoop=1;strokeWidth=1;fontFamily=Verdana;fontSize=8;strokeColor=#E07A5F;fontColor=#393C56;" edge="1" parent="_5zznYZPw9g1OTF376kU-92" source="_5zznYZPw9g1OTF376kU-93" target="_5zznYZPw9g1OTF376kU-94">
          <mxGeometry relative="1" as="geometry" />
        </mxCell>
        <mxCell id="_5zznYZPw9g1OTF376kU-98" style="edgeStyle=orthogonalEdgeStyle;rounded=1;html=1;labelBackgroundColor=none;startArrow=none;startFill=0;startSize=5;endArrow=classicThin;endFill=1;endSize=5;jettySize=auto;orthogonalLoop=1;strokeWidth=1;fontFamily=Verdana;fontSize=8;strokeColor=#E07A5F;fontColor=#393C56;" edge="1" parent="_5zznYZPw9g1OTF376kU-92" source="_5zznYZPw9g1OTF376kU-94" target="_5zznYZPw9g1OTF376kU-95">
          <mxGeometry relative="1" as="geometry" />
        </mxCell>
        <mxCell id="_5zznYZPw9g1OTF376kU-99" value="Lane 6" style="swimlane;html=1;startSize=20;fillColor=#F2CC8F;strokeColor=#E07A5F;fontColor=#393C56;" vertex="1" parent="_5zznYZPw9g1OTF376kU-52">
          <mxGeometry x="960" y="20" width="160" height="750" as="geometry" />
        </mxCell>
        <mxCell id="_5zznYZPw9g1OTF376kU-100" value="" style="rounded=1;whiteSpace=wrap;html=1;shadow=0;labelBackgroundColor=none;strokeWidth=1;fontFamily=Verdana;fontSize=8;align=center;fillColor=#F2CC8F;strokeColor=#E07A5F;fontColor=#393C56;" vertex="1" parent="_5zznYZPw9g1OTF376kU-99">
          <mxGeometry x="30" y="640" width="100" height="60" as="geometry" />
        </mxCell>
        <mxCell id="_5zznYZPw9g1OTF376kU-103" value="Lane 6" style="swimlane;html=1;startSize=20;fillColor=#F2CC8F;strokeColor=#E07A5F;fontColor=#393C56;" vertex="1" parent="_5zznYZPw9g1OTF376kU-52">
          <mxGeometry x="1120" y="20" width="160" height="750" as="geometry" />
        </mxCell>
        <mxCell id="_5zznYZPw9g1OTF376kU-104" value="" style="rounded=1;whiteSpace=wrap;html=1;shadow=0;labelBackgroundColor=none;strokeWidth=1;fontFamily=Verdana;fontSize=8;align=center;fillColor=#F2CC8F;strokeColor=#E07A5F;fontColor=#393C56;" vertex="1" parent="_5zznYZPw9g1OTF376kU-103">
          <mxGeometry x="30" y="640" width="100" height="60" as="geometry" />
        </mxCell>
        <mxCell id="_5zznYZPw9g1OTF376kU-101" style="edgeStyle=orthogonalEdgeStyle;rounded=0;orthogonalLoop=1;jettySize=auto;html=1;exitX=1;exitY=0.5;exitDx=0;exitDy=0;entryX=0;entryY=0.5;entryDx=0;entryDy=0;labelBackgroundColor=#F4F1DE;strokeColor=#E07A5F;fontColor=#393C56;" edge="1" parent="_5zznYZPw9g1OTF376kU-52" source="_5zznYZPw9g1OTF376kU-54" target="_5zznYZPw9g1OTF376kU-73">
          <mxGeometry relative="1" as="geometry" />
        </mxCell>
        <mxCell id="_5zznYZPw9g1OTF376kU-102" value="进入直播间" style="edgeLabel;html=1;align=center;verticalAlign=middle;resizable=0;points=[];labelBackgroundColor=#F4F1DE;fontColor=#393C56;" vertex="1" connectable="0" parent="_5zznYZPw9g1OTF376kU-101">
          <mxGeometry y="2" relative="1" as="geometry">
            <mxPoint as="offset" />
          </mxGeometry>
        </mxCell>
      </root>
    </mxGraphModel>
  </diagram>
</mxfile>
